<svg aria-hidden="true" style="position: absolute; width: 0; height: 0; overflow: hidden;" version="1.1" xmlns="http://www.w3.org/2000/svg" xmlns:xlink="http://www.w3.org/1999/xlink">
<defs>
<symbol id="icon-facebook" viewBox="0 0 64 32">
<title>facebook</title>
<path d="M2.586 0.043c0 0.316 0 0.881 0 0.881s-0.65-0.065-0.812 0.184c-0.089 0.136-0.036 0.535-0.044 0.821 0.284 0 0.578 0 0.862 0-0.073 0.335-0.125 0.561-0.179 0.851-0.245 0-0.688 0-0.688 0v2.739c0 0-0.812 0-1.194 0 0-0.844-0-1.829 0-2.728-0.185 0-0.323 0-0.508 0 0-0.316 0-0.546 0-0.862 0.18 0 0.322 0 0.502 0 0.026-0.63 0.035-1.254 0.348-1.572 0.352-0.357 0.687-0.314 1.712-0.314z"></path>
</symbol>
<symbol id="icon-instagram" viewBox="0 0 64 32">
<title>instagram</title>
<path d="M4.856 5.519h-4.107c-0.378 0-0.684-0.307-0.684-0.685v-4.107c0-0.378 0.307-0.685 0.684-0.685h4.107c0.378 0 0.684 0.307 0.684 0.685v4.107c0 0.378-0.307 0.685-0.684 0.685zM2.802 1.72c-0.427 0-0.794 0.253-0.962 0.616h-0.001c-0.002 0.004-0.003 0.008-0.005 0.012-0.010 0.022-0.019 0.046-0.027 0.069-0.004 0.011-0.009 0.022-0.012 0.033-0.008 0.024-0.014 0.048-0.020 0.073-0.003 0.011-0.006 0.023-0.009 0.034-0.006 0.026-0.009 0.052-0.013 0.079-0.002 0.011-0.004 0.021-0.005 0.032-0.004 0.037-0.006 0.075-0.006 0.114 0 0.586 0.475 1.061 1.061 1.061s1.061-0.475 1.061-1.061c0-0.038-0.002-0.076-0.006-0.114-0.001-0.011-0.003-0.021-0.005-0.032-0.004-0.027-0.007-0.053-0.013-0.079-0.003-0.012-0.006-0.023-0.009-0.034-0.006-0.025-0.012-0.049-0.020-0.073-0.004-0.011-0.008-0.022-0.012-0.033-0.009-0.023-0.017-0.046-0.027-0.069-0.002-0.004-0.003-0.008-0.005-0.012h-0.001c-0.168-0.363-0.535-0.616-0.962-0.616zM4.924 0.932c0-0.151-0.123-0.274-0.274-0.274h-0.548c-0.151 0-0.274 0.122-0.274 0.274v0.548c0 0.151 0.123 0.274 0.274 0.274h0.548c0.151 0 0.274-0.123 0.274-0.274v-0.548zM4.924 2.336h-0.505c0.039 0.142 0.060 0.291 0.060 0.445 0 0.926-0.751 1.677-1.677 1.677s-1.677-0.751-1.677-1.677c0-0.154 0.021-0.303 0.060-0.445h-0.505v2.293c0 0.151 0.123 0.274 0.274 0.274h3.696c0.151 0 0.274-0.123 0.274-0.274v-2.293z"></path>
</symbol>
<symbol id="icon-pinterest" viewBox="0 0 64 32">
<title>pinterest</title>
<path d="M1.936 3.605c-0.045 0.178-0.090 0.365-0.136 0.548-0.046 0.18-0.087 0.363-0.154 0.528-0.111 0.274-0.252 0.539-0.437 0.753-0.123 0.143-0.097 0.086-0.134 0.078-0.028-0.006-0.031-0.034-0.036-0.074-0.030-0.218-0.010-0.47 0.002-0.714 0.013-0.279 0.071-0.511 0.126-0.742 0.104-0.442 0.202-0.874 0.307-1.318 0.007-0.030 0.026-0.078 0.019-0.095-0.048-0.123-0.078-0.234-0.092-0.364-0.016-0.149-0.004-0.288 0.030-0.416 0.059-0.226 0.195-0.427 0.405-0.5 0.133-0.046 0.281-0.025 0.371 0.028 0.092 0.055 0.156 0.143 0.185 0.267 0.032 0.132 0.008 0.289-0.017 0.405-0.057 0.261-0.132 0.456-0.2 0.708-0.034 0.125-0.072 0.253-0.040 0.388 0.029 0.124 0.093 0.209 0.181 0.273 0.091 0.066 0.199 0.102 0.348 0.097 0.263-0.009 0.445-0.177 0.567-0.335 0.195-0.253 0.313-0.595 0.358-1.002 0.014-0.131 0.025-0.282 0.015-0.431-0.019-0.275-0.105-0.496-0.241-0.667-0.13-0.163-0.314-0.293-0.537-0.366-0.222-0.072-0.529-0.096-0.801-0.050-0.496 0.085-0.845 0.367-1.051 0.756-0.108 0.204-0.179 0.438-0.179 0.729 0 0.225 0.055 0.399 0.145 0.535 0.028 0.043 0.070 0.079 0.098 0.128 0.040 0.070-0.006 0.173-0.025 0.249-0.024 0.091-0.026 0.216-0.132 0.219-0.044 0.001-0.099-0.031-0.136-0.052-0.279-0.154-0.449-0.435-0.518-0.799-0.042-0.221-0.042-0.479 0-0.693 0.041-0.207 0.116-0.397 0.2-0.552 0.174-0.322 0.429-0.579 0.74-0.762 0.239-0.141 0.508-0.24 0.836-0.288 0.109-0.016 0.221-0.022 0.343-0.028 0.357-0.017 0.681 0.064 0.925 0.173 0.258 0.115 0.464 0.269 0.637 0.459 0.179 0.196 0.31 0.423 0.392 0.708 0.043 0.148 0.085 0.306 0.085 0.489s-0.039 0.345-0.066 0.507c-0.101 0.605-0.389 1.1-0.821 1.381-0.105 0.068-0.231 0.131-0.375 0.173-0.143 0.042-0.305 0.073-0.48 0.061-0.169-0.012-0.308-0.058-0.424-0.123s-0.213-0.145-0.281-0.266z"></path>
</symbol>
<symbol id="icon-twitter" viewBox="0 0 64 32">
<title>twitter</title>
<path d="M3.746 0.129c0.435-0.008 0.667 0.151 0.888 0.352 0.188-0.016 0.432-0.121 0.576-0.194 0.046-0.025 0.093-0.051 0.14-0.076-0.082 0.222-0.193 0.396-0.364 0.527-0.038 0.029-0.076 0.069-0.123 0.087 0 0.001 0 0.002 0 0.003 0.244-0.002 0.445-0.113 0.636-0.172 0 0.001 0 0.002 0 0.003-0.1 0.159-0.236 0.321-0.381 0.437-0.058 0.046-0.117 0.093-0.175 0.139 0.003 0.258-0.004 0.505-0.052 0.722-0.281 1.261-1.024 2.117-2.201 2.484-0.423 0.132-1.105 0.186-1.59 0.065-0.24-0.059-0.457-0.127-0.66-0.216-0.113-0.049-0.218-0.103-0.318-0.164-0.033-0.020-0.066-0.040-0.099-0.060 0.109 0.003 0.237 0.033 0.359 0.013 0.111-0.018 0.219-0.013 0.321-0.035 0.254-0.056 0.48-0.13 0.674-0.243 0.094-0.055 0.237-0.12 0.304-0.199-0.126 0.002-0.241-0.027-0.334-0.060-0.363-0.128-0.575-0.364-0.713-0.719 0.11 0.012 0.427 0.041 0.502-0.022-0.139-0.008-0.272-0.088-0.367-0.148-0.292-0.183-0.531-0.49-0.529-0.962 0.038 0.018 0.077 0.036 0.115 0.055 0.074 0.031 0.148 0.048 0.236 0.066 0.037 0.008 0.111 0.029 0.154 0.013-0.002 0-0.004 0-0.006 0-0.056-0.066-0.149-0.11-0.206-0.18-0.188-0.233-0.363-0.592-0.252-1.019 0.028-0.108 0.073-0.204 0.121-0.292 0.002 0.001 0.004 0.002 0.006 0.003 0.022 0.046 0.071 0.079 0.101 0.118 0.096 0.119 0.214 0.225 0.334 0.32 0.41 0.321 0.78 0.518 1.373 0.664 0.151 0.037 0.325 0.065 0.504 0.066-0.050-0.147-0.034-0.385 0.005-0.527 0.1-0.358 0.317-0.616 0.636-0.754 0.076-0.033 0.161-0.057 0.249-0.077 0.046-0.005 0.091-0.011 0.137-0.016z"></path>
</symbol>
</defs>
</svg>
